<?xml version="1.0" encoding="UTF-8"?>
<svg version="1.1" xmlns="http://www.w3.org/2000/svg" width="300" height="308">
<path d="M0 0 C99 0 198 0 300 0 C300 101.64 300 203.28 300 308 C201 308 102 308 0 308 C0 206.36 0 104.72 0 0 Z " fill="#FDFDFD" transform="translate(0,0)"/>
<path d="M0 0 C1.0021907 -0.0071553 2.00438141 -0.01431061 3.03694153 -0.02168274 C4.13050964 -0.02437164 5.22407776 -0.02706055 6.3507843 -0.02983093 C7.50734024 -0.03640213 8.66389618 -0.04297333 9.85549927 -0.04974365 C13.68636642 -0.06946832 17.51719439 -0.0811376 21.34809875 -0.09111023 C22.65710459 -0.09518576 23.96611042 -0.09926128 25.3147831 -0.10346031 C31.52926488 -0.12250201 37.74373488 -0.13673406 43.95824021 -0.14507228 C51.11514399 -0.15483525 58.27173771 -0.18113405 65.4285323 -0.22157317 C70.97096085 -0.25180796 76.5133009 -0.26654817 82.05581027 -0.26985329 C85.36105251 -0.2721958 88.66588888 -0.28304725 91.9710598 -0.30631447 C95.66429087 -0.33069704 99.3567159 -0.3297418 103.05000305 -0.32279968 C104.13345001 -0.33560974 105.21689697 -0.3484198 106.33317566 -0.36161804 C116.089944 -0.29495476 123.09054505 2.58629127 130.23091125 9.21357727 C135.88550089 15.31166414 138.13756144 20.81336384 138.17105103 29.0723877 C138.18178398 30.89120453 138.18178398 30.89120453 138.19273376 32.74676514 C138.19557382 34.0875089 138.19828558 35.42825294 138.20088196 36.76899719 C138.20714977 38.18353949 138.21379686 39.59808015 138.22079468 41.01261902 C138.24180155 45.65511435 138.25219465 50.29760988 138.26216125 54.94013977 C138.26621022 56.54096811 138.27032719 58.14179629 138.27451134 59.74262428 C138.29355645 67.26524989 138.3077883 74.78786574 138.31612331 82.31051081 C138.32589028 90.98140368 138.35219842 99.65204091 138.3926242 108.32284373 C138.42283043 115.03299044 138.43759649 121.74306405 138.44090432 128.45327741 C138.44324987 132.45711803 138.45214528 136.46068533 138.47736549 140.46445274 C138.50073016 144.23448982 138.50484613 148.00407525 138.49460411 151.77416611 C138.49387657 153.80612825 138.51290895 155.83806789 138.53266907 157.86993408 C138.49102739 165.22604627 137.72914806 170.74579944 134.02388 177.14717102 C133.44638 178.19904602 132.86888 179.25092102 132.27388 180.33467102 C129.37175764 183.96232398 126.0528346 186.81418294 122.02388 189.14717102 C121.03388 189.14717102 120.04388 189.14717102 119.02388 189.14717102 C121.26514807 193.06758848 123.81288217 196.58569708 126.58638 200.14717102 C127.48491476 201.30464761 128.3833495 202.46220185 129.2816925 203.61982727 C129.7383429 204.20651184 130.19499329 204.79319641 130.66548157 205.3976593 C132.36568462 207.58738883 134.05201846 209.78754401 135.73799133 211.98823547 C139.58624716 217.0099367 143.47599522 221.99609225 147.39888 226.95967102 C151.31791519 231.91917027 155.13090465 236.94716571 158.89888 242.02217102 C163.62025052 248.37723643 168.52523262 254.55692182 173.57221985 260.65644836 C183.02388 272.11999184 183.02388 272.11999184 183.02388 275.14717102 C178.77774797 275.61835938 174.53832308 275.89763203 170.27388 276.14717102 C169.08665344 276.28123352 167.89942688 276.41529602 166.67622375 276.55342102 C162.5964088 276.73177359 159.88162578 276.54304435 156.02388 275.14717102 C154.96938705 273.55016518 154.96938705 273.55016518 154.10539246 271.56558228 C151.74860107 266.19513073 149.13878507 262.22326892 144.02388 259.14717102 C132.18541724 256.05260032 119.32982053 256.93530318 107.19308996 257.09675765 C102.26765259 257.14872444 97.34256907 257.11962372 92.41697693 257.10281372 C84.14974842 257.08746598 75.88484263 257.13723356 67.61811829 257.22602844 C58.07825696 257.32769114 48.54265563 257.32578612 39.00252044 257.26855773 C29.79907207 257.21577419 20.5971815 257.23667489 11.39378738 257.2907505 C7.48851185 257.31240763 3.58451998 257.30850271 -0.3207283 257.28363609 C-4.92407546 257.25764289 -9.52256468 257.29644965 -14.12510681 257.38407707 C-15.80750952 257.40594512 -17.49036603 257.40607963 -19.17274094 257.38216782 C-27.9014988 257.08212777 -27.9014988 257.08212777 -35.66251898 260.47229981 C-39.57294936 264.50130275 -42.47108222 269.13709548 -44.97612 274.14717102 C-53.88612 274.14717102 -62.79612 274.14717102 -71.97612 274.14717102 C-69.72743348 268.52545473 -69.72743348 268.52545473 -67.50737 265.83467102 C-67.02381042 265.24089661 -66.54025085 264.64712219 -66.04203796 264.03535461 C-65.26690857 263.10070374 -65.26690857 263.10070374 -64.47612 262.14717102 C-63.38396653 260.80684562 -62.29283683 259.46568542 -61.2026825 258.12373352 C-60.65773132 257.45503235 -60.11278015 256.78633118 -59.55131531 256.09736633 C-57.27115176 253.27437402 -55.05487367 250.40498833 -52.85112 247.52217102 C-52.44409851 246.99067444 -52.03707703 246.45917786 -51.61772156 245.91157532 C-50.40300758 244.32408814 -49.18955692 242.73563456 -47.97612 241.14717102 C-46.39382256 239.0838762 -44.81046991 237.02139021 -43.22612 234.95967102 C-42.62368469 234.17547791 -42.62368469 234.17547791 -42.00907898 233.3754425 C-37.73182446 227.81542489 -33.41196687 222.28867068 -29.09843445 216.75679016 C-24.93736986 211.40995068 -20.85579942 206.01206063 -16.81596375 200.57295227 C-15.25744045 198.51808398 -13.65576459 196.54029121 -11.97612 194.58467102 C-9.80798345 192.23825858 -9.80798345 192.23825858 -8.97612 189.14717102 C-9.71862 189.04275696 -10.46112 188.9383429 -11.22612 188.83076477 C-16.74139657 187.45977983 -20.64333928 183.31171169 -23.56596375 178.56513977 C-26.35544508 173.04277527 -28.09899955 168.5708121 -28.11656189 162.33547974 C-28.12227203 161.12286469 -28.12798218 159.91024963 -28.13386536 158.66088867 C-28.13511071 157.31492625 -28.13623581 155.96896371 -28.13725281 154.6230011 C-28.14188168 153.20698416 -28.14690643 151.79096847 -28.15229797 150.37495422 C-28.16541997 146.5255444 -28.17186689 142.67615203 -28.17630863 138.82672334 C-28.17924053 136.42036534 -28.18334563 134.01401209 -28.18781281 131.60765648 C-28.20148908 124.07488172 -28.21115431 116.54211784 -28.2150147 109.00933152 C-28.21949169 100.32148517 -28.2370223 91.63379645 -28.26601529 82.94599801 C-28.28765873 76.22654424 -28.29772045 69.50713472 -28.29905581 62.78764647 C-28.30010222 58.77661084 -28.30597446 54.76572335 -28.32387543 50.7547245 C-28.34040158 46.97819175 -28.34248974 43.20191775 -28.33373642 39.42536163 C-28.33296839 38.04352562 -28.33727783 36.66167544 -28.34719467 35.2798748 C-28.42864089 23.2182739 -26.75246884 16.27628175 -18.32377625 7.35420227 C-12.86728642 2.22455709 -7.45029828 0.03661538 0 0 Z " fill="#030303" transform="translate(91.97611999511719,13.852828979492188)"/>
<path d="M0 0 C1.33587158 -0.01029488 1.33587158 -0.01029488 2.69873047 -0.02079773 C5.62182895 -0.03899106 8.54438673 -0.03523809 11.4675293 -0.02954102 C13.51482821 -0.03410714 15.5621256 -0.03941399 17.60942078 -0.04542542 C21.89381142 -0.05434246 26.17801553 -0.05195025 30.46240234 -0.04199219 C35.92958481 -0.03051803 41.39611988 -0.05069767 46.86321735 -0.07990932 C51.09024591 -0.09833459 55.31712124 -0.09796604 59.54417992 -0.0922718 C61.5586354 -0.09211929 63.57310173 -0.09810528 65.58751869 -0.11056328 C89.49334731 -0.23756661 89.49334731 -0.23756661 96.70332336 6.15406799 C112.73891644 23.18970017 102.72924805 58.6076706 102.72924805 74.40405273 C59.82924805 74.40405273 16.92924805 74.40405273 -27.27075195 74.40405273 C-27.27075195 12.49496183 -27.27075195 12.49496183 -20.52075195 5.59155273 C-13.7982028 1.06676004 -7.90576319 -0.04321278 0 0 Z " fill="#FEFEFE" transform="translate(109.270751953125,36.595947265625)"/>
<path d="M0 0 C1.14694839 -0.01869141 2.29389679 -0.03738281 3.4756012 -0.05664062 C7.26919897 -0.10786116 11.06058161 -0.10690952 14.85449219 -0.10107422 C17.49380347 -0.11594924 20.13310672 -0.13231754 22.7723999 -0.15011597 C28.30728073 -0.1811357 33.84154128 -0.17992436 39.37646484 -0.16308594 C45.75829545 -0.144389 52.13723241 -0.19177108 58.51852727 -0.27153981 C64.67350007 -0.34564495 70.8271227 -0.35813076 76.9825058 -0.34698105 C79.59318376 -0.34969702 82.20390479 -0.36978856 84.81430817 -0.40774918 C106.32296814 -0.68394277 106.32296814 -0.68394277 111.20275879 3.3805542 C113.50982428 6.16236649 115.09130698 8.72497485 116.65136719 11.96923828 C117.55666325 13.19167422 118.48993788 14.39449682 119.46386719 15.56298828 C120.18574219 16.52205078 120.90761719 17.48111328 121.65136719 18.46923828 C122.39386719 19.44892578 123.13636719 20.42861328 123.90136719 21.43798828 C125.65136719 23.96923828 125.65136719 23.96923828 126.65136719 26.96923828 C75.17136719 26.96923828 23.69136719 26.96923828 -29.34863281 26.96923828 C-27.09990455 21.34741761 -27.09990455 21.34741761 -24.92285156 18.66455078 C-24.22192383 17.78863281 -24.22192383 17.78863281 -23.50683594 16.89501953 C-23.02150391 16.30076172 -22.53617187 15.70650391 -22.03613281 15.09423828 C-21.08012886 13.91061434 -20.12569669 12.72571913 -19.17285156 11.53955078 C-18.75092529 11.02150879 -18.32899902 10.5034668 -17.89428711 9.96972656 C-16.34416132 8.09660769 -16.34416132 8.09660769 -15.50291538 6.27670288 C-11.78732146 -0.40082215 -7.12443684 -0.05198792 0 0 Z " fill="#FAFAFA" transform="translate(98.3486328125,232.03076171875)"/>
<path d="M0 0 C20.79 0 41.58 0 63 0 C63 6.27 63 12.54 63 19 C42.21 19 21.42 19 0 19 C0 12.73 0 6.46 0 0 Z " fill="#FEFEFE" transform="translate(116,124)"/>
<path d="M0 0 C1.36493853 -0.04815407 2.73076692 -0.07409441 4.0965271 -0.08276367 C5.21666702 -0.1125531 5.21666702 -0.1125531 6.35943604 -0.14294434 C8.83233373 -0.20140168 11.30420407 -0.22863445 13.77767944 -0.25073242 C15.50061053 -0.27374983 17.22354143 -0.29678062 18.94647217 -0.31982422 C22.56294518 -0.36186161 26.17906289 -0.38522995 29.79574585 -0.39916992 C34.414263 -0.42105575 39.02802859 -0.51701017 43.64505959 -0.63105774 C47.2072884 -0.7058684 50.76839309 -0.72640077 54.33134079 -0.73251343 C56.03231026 -0.7445655 57.73326622 -0.77650277 59.43346024 -0.82925415 C72.38672053 -1.2022948 72.38672053 -1.2022948 76.37203217 1.78692627 C79.16735508 4.6376838 83.73861694 9.46004517 83.73861694 13.56176758 C52.05861694 13.56176758 20.37861694 13.56176758 -12.26138306 13.56176758 C-3.63795948 0.62663221 -3.63795948 0.62663221 0 0 Z " fill="#FDFDFD" transform="translate(111.26138305664063,205.438232421875)"/>
<path d="M0 0 C2.75329021 1.79562405 4.52627461 3.05254922 6 6 C6.43023798 9.87214182 6.31669086 11.52496371 4.125 14.8125 C1.42055063 17.59649199 0.57733296 17.93464155 -3.3125 18.375 C-7 18 -7 18 -9.9375 16 C-12.23092162 12.66411401 -12.75815509 10.90015906 -12.48046875 6.9375 C-10.87278432 0.45447986 -5.98096831 -0.96122705 0 0 Z " fill="#F6F6F6" transform="translate(203,159)"/>
<path d="M0 0 C5.50619612 3.26293103 5.50619612 3.26293103 6.55078125 6.9375 C6.81273098 10.88919871 6.21876473 12.68179675 3.9375 16 C0.23727467 18.51930235 -1.6031656 18.7066341 -6 18 C-8.75329021 16.20437595 -10.52627461 14.94745078 -12 12 C-12.43023798 8.12785818 -12.31669086 6.47503629 -10.125 3.1875 C-6.82949019 -0.20493657 -4.68335942 -0.54038763 0 0 Z " fill="#F8F8F8" transform="translate(97,159)"/>
<path d="M0 0 C2.75329021 1.79562405 4.52627461 3.05254922 6 6 C6.43023798 9.87214182 6.31669086 11.52496371 4.125 14.8125 C1.43302791 17.58364773 0.549607 17.9274104 -3.3125 18.4375 C-7 18 -7 18 -9.9375 15.4375 C-11.72861311 12.91447024 -12.06468531 11.63129375 -12.625 8.4375 C-11.31842905 1.25135978 -6.9949306 -1.12418528 0 0 Z " fill="#F7F7F7" transform="translate(180,159)"/>
<path d="M0 0 C4.78928081 0.92424717 6.3477954 2.00235082 9.5625 5.6875 C10.33402986 10.00806721 10.08997866 11.87869939 7.6875 15.5625 C4.98843031 18.26156969 4.07148995 18.62027491 0.25 19.125 C-3.4375 18.6875 -3.4375 18.6875 -6.375 16.0625 C-8.64317158 12.35094651 -9.31959009 10.92153243 -8.4375 6.6875 C-5.97360795 2.65567664 -4.69516396 0.93903279 0 0 Z " fill="#F9F9F9" transform="translate(116.4375,158.3125)"/>
<path d="M0 0 C-0.33 1.32 -0.66 2.64 -1 4 C-1.66 4 -2.32 4 -3 4 C-3.33 4.66 -3.66 5.32 -4 6 C-5.64142963 7.0409066 -7.30712215 8.04504326 -9 9 C-7.45665977 5.21180126 -4.44676575 0 0 0 Z " fill="#141414" transform="translate(78,19)"/>
<path d="M0 0 C0.66 0.66 1.32 1.32 2 2 C-1.5 6.875 -1.5 6.875 -6 8 C-4.02 5.36 -2.04 2.72 0 0 Z " fill="#141414" transform="translate(45,254)"/>
</svg>
